HIERARCHY
ROOT Hips
{
	OFFSET 0.000000 0.000000 0.000000
	CHANNELS 6 Xposition Yposition Zposition Xrotation Yrotation Zrotation
	JOINT LeftUpLeg_virtual
	{
		OFFSET 0.000000 0.000000 0.000000
		CHANNELS 3 Xrotation Yrotation Zrotation
		JOINT LeftUpLeg
		{
			OFFSET 15.427100 -6.655098 0.678600
			CHANNELS 3 Xrotation Yrotation Zrotation
			JOINT LeftLeg
			{
				OFFSET 4.081073 -39.591068 13.024000
				CHANNELS 3 Xrotation Yrotation Zrotation
				JOINT LeftFoot
				{
					OFFSET -4.081074 -37.707932 -15.979700
					CHANNELS 3 Xrotation Yrotation Zrotation
					JOINT LeftToeBase
					{
						OFFSET 5.346399 -15.068900 20.645000
						CHANNELS 3 Xrotation Yrotation Zrotation
						JOINT LeftToe_End
						{
							OFFSET 2.754700 0.931300 11.300900
							CHANNELS 3 Xrotation Yrotation Zrotation
							End Site
							{
								OFFSET 0 0 0
							}
						}
					}
				}
			}
		}
	}
	JOINT RightUpLeg_virtual
	{
		OFFSET 0.000000 0.000000 0.000000
		CHANNELS 3 Xrotation Yrotation Zrotation
		JOINT RightUpLeg
		{
			OFFSET -15.569500 -6.655098 0.678600
			CHANNELS 3 Xrotation Yrotation Zrotation
			JOINT RightLeg
			{
				OFFSET -4.081825 -39.591045 13.023800
				CHANNELS 3 Xrotation Yrotation Zrotation
				JOINT RightFoot
				{
					OFFSET 4.081824 -37.707954 -15.979600
					CHANNELS 3 Xrotation Yrotation Zrotation
					JOINT RightToeBase
					{
						OFFSET -5.346400 -15.068900 20.645000
						CHANNELS 3 Xrotation Yrotation Zrotation
						JOINT RightToe_End
						{
							OFFSET -2.754700 0.931300 11.300900
							CHANNELS 3 Xrotation Yrotation Zrotation
							End Site
							{
								OFFSET 0 0 0
							}
						}
					}
				}
			}
		}
	}
	JOINT Spine_virtual
	{
		OFFSET 0.000000 0.000000 0.000000
		CHANNELS 3 Xrotation Yrotation Zrotation
		JOINT Spine
		{
			OFFSET -0.279200 12.230698 -2.892100
			CHANNELS 3 Xrotation Yrotation Zrotation
			JOINT Spine1
			{
				OFFSET -0.232667 10.192268 -1.242267
				CHANNELS 3 Xrotation Yrotation Zrotation
				JOINT Spine1_split
				{
					OFFSET -0.232667 10.192268 -1.242267
					CHANNELS 3 Xrotation Yrotation Zrotation
					JOINT Spine2
					{
						OFFSET -0.232667 10.192268 -1.242267
						CHANNELS 3 Xrotation Yrotation Zrotation
						JOINT Neck_virtual
						{
							OFFSET 0.000000 0.000000 0.000000
							CHANNELS 3 Xrotation Yrotation Zrotation
							JOINT Neck
							{
								OFFSET -0.418800 17.814194 8.416900
								CHANNELS 3 Xrotation Yrotation Zrotation
								JOINT Head
								{
									OFFSET 0.000000 7.031097 3.806800
									CHANNELS 3 Xrotation Yrotation Zrotation
									JOINT HeadTop_End
									{
										OFFSET 0.000000 24.646606 12.978600
										CHANNELS 3 Xrotation Yrotation Zrotation
										End Site
										{
											OFFSET 0 0 0
										}
									}
								}
							}
						}
						JOINT LeftShoulder_virtual
						{
							OFFSET 0.000000 0.000000 0.000000
							CHANNELS 3 Xrotation Yrotation Zrotation
							JOINT LeftShoulder
							{
								OFFSET 8.476499 7.247704 -3.868750
								CHANNELS 3 Xrotation Yrotation Zrotation
								JOINT LeftShoulder_split
								{
									OFFSET 8.476499 7.247704 -3.868750
									CHANNELS 3 Xrotation Yrotation Zrotation
									JOINT LeftArm
									{
										OFFSET 9.308998 -2.777710 0.208600
										CHANNELS 3 Xrotation Yrotation Zrotation
										JOINT LeftForeArm
										{
											OFFSET 29.972298 0.000000 0.000000
											CHANNELS 3 Xrotation Yrotation Zrotation
											JOINT LeftHand
											{
												OFFSET 26.026505 0.000000 0.000000
												CHANNELS 3 Xrotation Yrotation Zrotation
												End Site
												{
													OFFSET 0 0 0
												}
											}
										}
									}
								}
							}
						}
						JOINT RightShoulder_virtual
						{
							OFFSET 0.000000 0.000000 0.000000
							CHANNELS 3 Xrotation Yrotation Zrotation
							JOINT RightShoulder
							{
								OFFSET -7.570500 7.247704 -3.868750
								CHANNELS 3 Xrotation Yrotation Zrotation
								JOINT RightShoulder_split
								{
									OFFSET -7.570500 7.247704 -3.868750
									CHANNELS 3 Xrotation Yrotation Zrotation
									JOINT RightArm
									{
										OFFSET -9.308998 -2.777710 0.208500
										CHANNELS 3 Xrotation Yrotation Zrotation
										JOINT RightForeArm
										{
											OFFSET -29.972300 0.000000 0.000000
											CHANNELS 3 Xrotation Yrotation Zrotation
											JOINT RightHand
											{
												OFFSET -26.026505 0.000000 0.000000
												CHANNELS 3 Xrotation Yrotation Zrotation
												End Site
												{
													OFFSET 0 0 0
												}
											}
										}
									}
								}
							}
						}
					}
				}
			}
		}
	}
}
MOTION
Frames: 9
Frame Time: 0.03333333
5.660208 49.271427 -17.828026 0.000000 0.000000 0.000000 29.516905 -4.551297 3.869355 -87.207186 -4.469445 28.883757 112.651587 -7.614452 -7.318644 -20.118956 -19.772025 4.646064 -35.915549 -2.802403 -0.740368 0.000000 0.000000 0.000000 31.172208 -5.040559 3.730774 -74.331993 -9.840533 -14.536618 109.075867 23.134599 1.348642 -47.234269 9.839687 -24.351322 -36.716583 -0.216904 0.652415 0.000000 0.000000 0.000000 30.470847 -4.771860 2.650696 8.190412 2.209488 -2.064752 24.371881 1.935292 -5.126083 1.538926 0.126972 0.714534 0.000000 0.000000 0.000000 23.663687 1.901278 -4.812746 -26.322238 -5.130211 0.810531 -28.418477 -7.450508 2.520929 0.000000 0.000000 0.000000 22.784463 2.218813 -5.266857 2.208579 -2.956922 1.616540 0.762720 -6.168775 0.484892 -19.816592 -29.071375 -21.576580 -146.929144 -82.532632 -147.477294 0.000000 0.000000 0.000000 23.682559 2.048434 -5.343547 7.740697 29.429328 7.406719 1.177524 4.065462 -2.569080 -34.817545 5.999514 27.547041 9.871687 72.685637 -20.594456 0.000000 0.000000 0.000000 
6.842567 45.562798 -19.731895 0.000000 0.000000 0.000000 32.378505 -3.392438 4.883717 -79.844058 -5.982076 32.533414 117.915525 -12.593849 -6.790198 -29.785799 -20.777888 0.025002 -43.520777 -3.257923 -0.470861 0.000000 0.000000 0.000000 34.027203 -4.151958 4.723159 -83.195966 -3.298888 -18.950172 113.573758 23.570727 2.779942 -45.820249 8.237175 -23.365372 -37.945888 -0.010645 1.015831 0.000000 0.000000 0.000000 33.886215 -2.847759 3.376442 7.585979 1.914550 -2.470446 22.300120 1.708107 -4.280616 1.514392 0.211371 1.114883 0.000000 0.000000 0.000000 21.579199 1.543760 -4.116955 -21.811058 -5.016113 0.192194 -29.969641 -8.545998 1.955813 0.000000 0.000000 0.000000 20.764489 1.857033 -4.394446 1.858224 -2.923237 0.073333 0.570969 -5.695535 0.102677 -17.704204 -33.656286 -20.260001 -155.376599 -82.275434 -157.250270 0.000000 0.000000 0.000000 21.531932 1.535944 -4.602901 7.595958 31.411599 10.158047 1.199334 3.776557 -2.523179 -37.029912 11.372488 25.371224 6.533102 67.000809 -15.494568 0.000000 0.000000 0.000000 
7.865063 42.449074 -21.354187 0.000000 0.000000 0.000000 34.405767 -2.524905 5.684928 -72.183734 -7.151217 35.862680 118.993985 -17.555569 -6.957865 -37.707210 -21.126292 -5.241981 -47.325226 -3.117401 -1.105214 0.000000 0.000000 0.000000 36.180574 -3.944193 5.679973 -89.982148 3.021807 -23.239625 116.783408 24.778323 4.649142 -43.352915 6.997720 -21.453523 -38.449327 0.401696 1.169747 0.000000 0.000000 0.000000 36.510383 -1.429750 4.151283 7.245436 1.376342 -2.829235 20.036724 1.471826 -3.266154 1.140928 0.262350 1.459463 0.000000 0.000000 0.000000 19.347457 1.165156 -3.260822 -17.728675 -4.859655 -0.393107 -31.366787 -9.159214 1.549312 0.000000 0.000000 0.000000 18.661897 1.441331 -3.414932 1.431705 -2.530732 -1.905861 0.007437 -4.727733 -0.648185 -15.153236 -38.131843 -20.939782 -158.565765 -84.223486 -161.565229 0.000000 0.000000 0.000000 19.249112 1.038001 -3.651555 7.384723 32.415081 12.816590 0.748041 3.496640 -2.123163 -38.778020 14.993375 24.432220 4.645989 62.303790 -11.673312 0.000000 0.000000 0.000000 
8.595779 40.020813 -22.371704 0.000000 0.000000 0.000000 35.591153 -1.786510 6.107422 -66.161461 -8.187566 38.616957 117.664051 -21.953662 -8.045398 -42.676484 -20.840753 -9.947325 -49.274569 -2.589482 -2.120572 0.000000 0.000000 0.000000 37.560692 -4.312578 6.474108 -94.129009 7.775440 -27.340113 118.979027 26.460414 6.858251 -41.255579 6.469159 -19.450453 -37.985284 0.929137 1.156918 0.000000 0.000000 0.000000 37.980008 -0.394079 4.924343 7.321344 0.674450 -3.116730 17.946274 1.205123 -2.309584 0.809015 -0.146326 1.558511 0.000000 0.000000 0.000000 17.330690 0.790644 -2.416308 -14.577569 -4.677302 -0.837964 -32.562466 -9.422941 1.416835 0.000000 0.000000 0.000000 16.849764 0.964183 -2.534641 0.965276 -1.975379 -3.999105 -0.917164 -3.211472 -1.503065 -12.902115 -41.593567 -23.051212 -157.947004 -87.675013 -161.761037 0.000000 0.000000 0.000000 17.207345 0.573287 -2.677303 7.242225 32.559372 14.937468 0.135829 3.118373 -1.361936 -40.261052 16.832400 24.319256 3.471517 59.301082 -8.584961 0.000000 0.000000 0.000000 
8.907442 38.232136 -22.695190 0.000000 0.000000 0.000000 36.064061 -1.397602 6.279644 -62.662047 -8.674035 40.880929 115.619981 -24.814016 -10.408880 -45.566299 -20.684186 -11.569872 -52.547657 -2.221006 -2.741435 0.000000 0.000000 0.000000 38.380667 -4.924099 7.067584 -95.841679 10.183608 -31.269572 120.348329 28.303083 9.429791 -40.393080 6.706672 -18.691253 -37.041038 1.403971 1.076798 0.000000 0.000000 0.000000 38.371525 0.561158 5.506374 7.764918 -0.108371 -3.298559 16.313825 0.898656 -1.577619 0.643450 -1.020687 1.506257 0.000000 0.000000 0.000000 15.817371 0.459448 -1.753251 -12.507222 -4.541947 -1.065687 -33.564765 -9.345833 1.584321 0.000000 0.000000 0.000000 15.567225 0.499382 -1.881310 0.520351 -1.377615 -5.911999 -2.078178 -1.609439 -2.280568 -11.473400 -43.728674 -25.847002 12.947846 -88.587499 8.685691 0.000000 0.000000 0.000000 15.667472 0.194329 -1.871410 7.290360 31.978181 16.178328 -0.090506 2.975107 -0.399642 -41.627735 17.455151 24.421937 2.572053 57.949456 -5.957584 0.000000 0.000000 0.000000 
8.819942 37.115398 -22.700691 0.000000 0.000000 0.000000 36.044059 -1.526789 6.317996 -61.483143 -7.732049 42.835207 113.891792 -25.798169 -13.799575 -47.927676 -21.064915 -9.224656 -57.520513 -2.172127 -2.737077 0.000000 0.000000 0.000000 38.656190 -5.312625 7.332817 -95.740455 10.357196 -34.990014 121.000093 30.109373 12.201747 -40.600598 7.455236 -19.599332 -36.122787 1.725623 0.973579 0.000000 0.000000 0.000000 37.900925 1.373955 5.833698 8.456630 -0.886882 -3.399430 15.299219 0.595956 -1.166146 0.555748 -2.310234 1.489903 0.000000 0.000000 0.000000 14.877346 0.220286 -1.373222 -11.449288 -4.418132 -1.109775 -34.372978 -8.922834 1.980786 0.000000 0.000000 0.000000 14.898640 0.102317 -1.510975 0.118032 -0.940763 -7.308973 -3.316393 -0.159752 -2.847270 -11.087417 -44.225707 -28.553333 17.838641 -85.926525 13.509156 0.000000 0.000000 0.000000 14.724274 -0.077145 -1.337726 7.484591 31.104234 16.631835 0.033625 3.398659 0.548806 -42.913857 17.741503 24.354189 1.777608 57.322328 -3.737311 0.000000 0.000000 0.000000 
8.569287 36.734844 -22.130875 0.000000 0.000000 0.000000 35.915225 -2.082837 6.454713 -61.710349 -5.755660 44.384775 113.615887 -25.706754 -16.599559 -50.487051 -21.667845 -5.351870 -61.204519 -2.122032 -2.833026 0.000000 0.000000 0.000000 38.595934 -5.211638 7.313133 -94.785602 9.285981 -38.155803 120.793234 31.857409 14.716957 -41.183756 8.557265 -21.348999 -36.328461 1.854565 0.755602 0.000000 0.000000 0.000000 37.103486 1.899374 5.959694 9.157171 -1.517838 -3.422837 14.911194 0.314118 -1.018967 0.929478 -3.521315 1.528603 0.000000 0.000000 0.000000 14.464403 0.067725 -1.265099 -11.080465 -4.352085 -1.036478 -34.973444 -8.258831 2.498652 0.000000 0.000000 0.000000 14.740248 -0.197448 -1.354704 -0.225681 -0.646498 -8.139659 -4.310216 0.663861 -3.045296 -11.371615 -43.508373 -30.733416 22.453272 -85.071085 18.343803 0.000000 0.000000 0.000000 14.306466 -0.251270 -1.069969 7.681304 30.165756 16.515835 0.359010 4.477778 1.431364 -44.098563 18.330363 24.153408 1.116898 56.671008 -1.998200 0.000000 0.000000 0.000000 
8.324095 37.094215 -21.362656 0.000000 0.000000 0.000000 35.761887 -2.449369 6.543425 -62.547601 -3.418760 45.208571 114.128301 -25.550705 -18.381607 -53.117773 -21.925199 -2.434621 -61.760613 -1.887570 -3.138090 0.000000 0.000000 0.000000 38.511923 -4.393037 7.008405 -93.504859 8.212239 -40.633120 119.974841 33.582244 16.571282 -41.372600 9.815032 -23.076880 -37.454527 1.793429 0.343363 0.000000 0.000000 0.000000 36.348071 1.917630 6.035149 9.594380 -1.940951 -3.433384 15.007150 0.098410 -1.030682 1.287650 -4.196748 1.573022 0.000000 0.000000 0.000000 14.390894 0.000054 -1.374168 -10.981556 -4.400686 -1.031191 -35.248820 -7.416357 3.013904 0.000000 0.000000 0.000000 14.973047 -0.378061 -1.271651 -0.490191 -0.367269 -8.440208 -5.092014 0.851685 -3.002970 -11.602498 -42.214715 -32.197624 32.195770 -85.861748 28.524859 0.000000 0.000000 0.000000 14.229943 -0.341022 -0.994676 7.751311 29.305548 16.216220 0.598358 5.872162 2.194658 -45.022257 19.320397 23.885086 0.659308 55.905952 -0.798755 0.000000 0.000000 0.000000 
8.216448 37.930782 -20.584221 0.000000 0.000000 0.000000 35.752280 -2.379980 6.493936 -63.143760 -1.131293 45.587387 113.774020 -25.820835 -19.446049 -55.519503 -21.703659 -1.670655 -60.536383 -1.837861 -3.041022 0.000000 0.000000 0.000000 38.395997 -3.130035 6.582094 -92.176729 7.632805 -42.355291 119.120794 35.127581 17.387783 -41.200709 11.104037 -24.407766 -37.876776 1.675465 -0.303180 0.000000 0.000000 0.000000 35.783634 1.474200 6.184226 9.582278 -2.157328 -3.470043 15.346921 -0.014331 -1.103575 1.748853 -4.135993 1.511367 0.000000 0.000000 0.000000 14.443388 0.003851 -1.577523 -10.837966 -4.510737 -1.181543 -35.269908 -6.679690 3.386273 0.000000 0.000000 0.000000 15.322495 -0.427762 -1.179382 -0.718099 -0.148565 -8.367698 -5.409239 0.562118 -2.756622 -11.762063 -40.907434 -33.328844 57.014809 -87.182351 53.841869 0.000000 0.000000 0.000000 14.324725 -0.365257 -1.012800 7.634316 28.676686 16.073013 0.593570 6.839523 2.542887 -45.544518 20.401039 23.706287 0.367096 55.246501 -0.080498 0.000000 0.000000 0.000000 
